<svg width="47" height="47" viewBox="0 0 47 47" fill="none" xmlns="http://www.w3.org/2000/svg">
<path fill-rule="evenodd" clip-rule="evenodd" d="M23.1889 46.5591C35.8347 46.5591 46.0862 36.3077 46.0862 23.6618C46.0862 11.016 35.8347 0.764505 23.1889 0.764505C10.543 0.764505 0.291565 11.016 0.291565 23.6618C0.291565 36.3077 10.543 46.5591 23.1889 46.5591Z" fill="#F04037" fill-opacity="0.1"/>
<path d="M32.3699 25.9848V20.6752C32.3699 16.2506 30.6001 14.4808 26.1755 14.4808H20.866C16.4413 14.4808 14.6715 16.2506 14.6715 20.6752V25.9848C14.6715 30.4094 16.4413 32.1792 20.866 32.1792H26.1755C30.6001 32.1792 32.3699 30.4094 32.3699 25.9848Z" stroke="#F04037" stroke-width="1.32738" stroke-linecap="round" stroke-linejoin="round"/>
<path d="M15.1317 19.0028H31.9098" stroke="#F04037" stroke-width="1.32738" stroke-linecap="round" stroke-linejoin="round"/>
<path d="M20.4412 14.5782V18.8789" stroke="#F04037" stroke-width="1.32738" stroke-linecap="round" stroke-linejoin="round"/>
<path d="M26.6003 14.5782V18.4807" stroke="#F04037" stroke-width="1.32738" stroke-linecap="round" stroke-linejoin="round"/>
<path d="M21.5297 25.4981V24.4362C21.5297 23.0735 22.4942 22.516 23.6712 23.1974L24.5915 23.7283L25.5118 24.2593C26.6887 24.9406 26.6887 26.0556 25.5118 26.737L24.5915 27.268L23.6712 27.7989C22.4942 28.4803 21.5297 27.9228 21.5297 26.5601V25.4981V25.4981Z" stroke="#F04037" stroke-width="1.32738" stroke-miterlimit="10" stroke-linecap="round" stroke-linejoin="round"/>
</svg>
