<svg width="47" height="47" viewBox="0 0 47 47" fill="none" xmlns="http://www.w3.org/2000/svg">
<path fill-rule="evenodd" clip-rule="evenodd" d="M23.1888 46.5235C35.8347 46.5235 46.0861 36.272 46.0861 23.6262C46.0861 10.9803 35.8347 0.728851 23.1888 0.728851C10.543 0.728851 0.291504 10.9803 0.291504 23.6262C0.291504 36.272 10.543 46.5235 23.1888 46.5235Z" fill="#FEDC5A" fill-opacity="0.1"/>
<path d="M20.866 24.1792C20.282 24.4713 19.7953 24.9049 19.4324 25.4447C19.2289 25.7544 19.2289 26.1438 19.4324 26.4535C19.7953 26.9933 20.282 27.4269 20.866 27.7189" stroke="#FEDC5A" stroke-width="1.32738" stroke-linecap="round" stroke-linejoin="round"/>
<path d="M26.3613 24.1792C26.9454 24.4713 27.4321 24.9049 27.7949 25.4447C27.9984 25.7544 27.9984 26.1438 27.7949 26.4535C27.4321 26.9933 26.9454 27.4269 26.3613 27.7189" stroke="#FEDC5A" stroke-width="1.32738" stroke-linecap="round" stroke-linejoin="round"/>
<path d="M20.8658 32.1435H26.1754C30.6 32.1435 32.3698 30.3737 32.3698 25.9491V20.6395C32.3698 16.2149 30.6 14.4451 26.1754 14.4451H20.8658C16.4412 14.4451 14.6714 16.2149 14.6714 20.6395V25.9491C14.6714 30.3737 16.4412 32.1435 20.8658 32.1435Z" stroke="#FEDC5A" stroke-width="1.32738" stroke-linecap="round" stroke-linejoin="round"/>
<path d="M14.875 19.7635L31.8832 19.7546" stroke="#FEDC5A" stroke-width="1.32738" stroke-linecap="round" stroke-linejoin="round"/>
</svg>
