<svg width="47" height="47" viewBox="0 0 47 47" fill="none" xmlns="http://www.w3.org/2000/svg">
<path fill-rule="evenodd" clip-rule="evenodd" d="M23.7604 46.5591C36.4063 46.5591 46.6577 36.3077 46.6577 23.6618C46.6577 11.016 36.4063 0.764505 23.7604 0.764505C11.1146 0.764505 0.863098 11.016 0.863098 23.6618C0.863098 36.3077 11.1146 46.5591 23.7604 46.5591Z" fill="#FEDC5A" fill-opacity="0.1"/>
<path d="M28.8709 29.7456H19.3137C17.9863 29.7456 17.4554 29.1793 17.4554 27.7723V26.8519C17.4554 25.4449 17.9863 24.8786 19.3137 24.8786H28.8709C30.1982 24.8786 30.7292 25.4449 30.7292 26.8519V27.7723C30.7292 29.1793 30.1982 29.7456 28.8709 29.7456Z" stroke="#FEDC5A" stroke-width="1.32738" stroke-linecap="round" stroke-linejoin="round"/>
<path d="M27.101 22.2238H21.0836C19.7562 22.2238 19.2252 21.6575 19.2252 20.2505V19.3301C19.2252 17.9231 19.7562 17.3568 21.0836 17.3568H27.101C28.4284 17.3568 28.9593 17.9231 28.9593 19.3301V20.2505C28.9593 21.6575 28.4284 22.2238 27.101 22.2238Z" stroke="#FEDC5A" stroke-width="1.32738" stroke-linecap="round" stroke-linejoin="round"/>
<path d="M24.0923 32.1793V30.0555" stroke="#FEDC5A" stroke-width="1.32738" stroke-linecap="round" stroke-linejoin="round"/>
<path d="M24.0923 24.2149V22.4451" stroke="#FEDC5A" stroke-width="1.32738" stroke-linecap="round" stroke-linejoin="round"/>
<path d="M24.0923 14.4808V16.8612" stroke="#292D32" stroke-width="1.32738" stroke-linecap="round" stroke-linejoin="round"/>
</svg>
