<svg width="46" height="47" viewBox="0 0 46 47" fill="none" xmlns="http://www.w3.org/2000/svg">
<path fill-rule="evenodd" clip-rule="evenodd" d="M22.9747 46.5591C35.6205 46.5591 45.872 36.3077 45.872 23.6618C45.872 11.016 35.6205 0.764511 22.9747 0.764511C10.3289 0.764511 0.0773926 11.016 0.0773926 23.6618C0.0773926 36.3077 10.3289 46.5591 22.9747 46.5591Z" fill="#5454D4" fill-opacity="0.1"/>
<path d="M18.6694 32.1792H27.9434C30.3858 32.1792 31.3592 30.6837 31.4742 28.8607L31.9344 21.5513C32.0583 19.6399 30.5362 18.0205 28.6159 18.0205C28.0761 18.0205 27.5806 17.7107 27.3328 17.2329L26.6957 15.9497C26.2886 15.1445 25.2267 14.4808 24.3241 14.4808H22.2976C21.3861 14.4808 20.3242 15.1445 19.9172 15.9497L19.28 17.2329C19.0323 17.7107 18.5367 18.0205 17.9969 18.0205C16.0766 18.0205 14.5546 19.6399 14.6784 21.5513L15.1386 28.8607C15.2448 30.6837 16.2271 32.1792 18.6694 32.1792Z" stroke="#5454D4" stroke-width="1.32738" stroke-linecap="round" stroke-linejoin="round"/>
<path d="M21.9792 19.7903H24.634" stroke="#5454D4" stroke-width="1.32738" stroke-linecap="round" stroke-linejoin="round"/>
<path d="M23.3067 28.6395C24.8907 28.6395 26.1826 27.3475 26.1826 25.7635C26.1826 24.1795 24.8907 22.8875 23.3067 22.8875C21.7226 22.8875 20.4307 24.1795 20.4307 25.7635C20.4307 27.3475 21.7226 28.6395 23.3067 28.6395Z" stroke="#5454D4" stroke-width="1.32738" stroke-linecap="round" stroke-linejoin="round"/>
</svg>
