<svg width="46" height="47" viewBox="0 0 46 47" fill="none" xmlns="http://www.w3.org/2000/svg">
<path fill-rule="evenodd" clip-rule="evenodd" d="M22.9746 46.5235C35.6205 46.5235 45.872 36.272 45.872 23.6262C45.872 10.9803 35.6205 0.728836 22.9746 0.728836C10.3288 0.728836 0.0773315 10.9803 0.0773315 23.6262C0.0773315 36.272 10.3288 46.5235 22.9746 46.5235Z" fill="#F04037" fill-opacity="0.1"/>
<path d="M24.2003 15.2593L29.4213 17.5778C30.9257 18.2415 30.9257 19.3388 29.4213 20.0025L24.2003 22.321C23.6074 22.5864 22.634 22.5864 22.0411 22.321L16.82 20.0025C15.3157 19.3388 15.3157 18.2415 16.82 17.5778L22.0411 15.2593C22.634 14.9938 23.6074 14.9938 24.2003 15.2593Z" stroke="#F04037" stroke-width="1.32738" stroke-linecap="round" stroke-linejoin="round"/>
<path d="M15.3422 22.4094C15.3422 23.1527 15.8997 24.0111 16.5811 24.312L22.5897 26.9844C23.0499 27.188 23.572 27.188 24.0233 26.9844L30.0319 24.312C30.7133 24.0111 31.2708 23.1527 31.2708 22.4094" stroke="#F04037" stroke-width="1.32738" stroke-linecap="round" stroke-linejoin="round"/>
<path d="M15.3422 26.834C15.3422 27.657 15.8289 28.4003 16.5811 28.7366L22.5897 31.409C23.0499 31.6126 23.572 31.6126 24.0233 31.409L30.0319 28.7366C30.7841 28.4003 31.2708 27.657 31.2708 26.834" stroke="#F04037" stroke-width="1.32738" stroke-linecap="round" stroke-linejoin="round"/>
</svg>
